<?xml version="1.0" encoding="utf-8"?>
<!-- Generator: Adobe Illustrator 21.0.0, SVG Export Plug-In . SVG Version: 6.00 Build 0)  -->
<svg version="1.1" baseProfile="tiny" id="Layer_1" xmlns="http://www.w3.org/2000/svg" xmlns:xlink="http://www.w3.org/1999/xlink"
	 x="0px" y="0px" viewBox="0 0 800 243" xml:space="preserve">
<g>
	<g>
		<g>
			<path fill-rule="evenodd" fill="#F36F28" d="M76.9,28.7c-5.9,7.8-8.1,17.8-6,27.3c-6.4-10.1-7.1-22.9-1.9-33.7
				c5.3-10.8,15.8-18,27.8-19.1C86.4,22.8,96.1,38,73.9,55.7C71.5,46.6,72.6,37,76.9,28.7L76.9,28.7z"/>
			<path fill-rule="evenodd" fill="#F36F28" d="M53.5,58.5c5.6-1.4,11.5-0.2,16.2,3.2c-4-5.9-10.7-9.3-17.8-8.9
				C44.8,53.1,38.4,57,35,63.3c13-1,18.9,7.8,33.7,0C64.4,59.8,59,58.1,53.5,58.5L53.5,58.5z"/>
		</g>
		<g>
			<path fill="#F36F28" d="M189.8,118.2c0-41.8-33.9-75.7-75.7-75.7s-75.7,33.9-75.7,75.7c0,37.1,26.7,67.9,61.9,74.4
				c-2.7-0.6-5.4-1.5-8-2.4c-7.2-2.8-13.4-6.9-18.7-12.3c-5.3-5.4-9.5-12.1-12.5-20.1c-3-8-4.6-17.3-4.6-27.8c0-8.2,1.3-15.9,4-23.1
				c2.7-7.2,6.5-13.5,11.4-18.9c5-5.3,11-9.6,18.1-12.7c7.1-3.1,15.2-4.7,24.2-4.7c7.6,0,14.5,1.2,20.9,3.6
				c6.4,2.4,11.8,6,16.5,10.6c4.6,4.6,8.2,10.3,10.8,17.1c2.6,6.8,3.9,14.5,3.9,23.1c0,2.2-0.1,4-0.3,5.4c-0.2,1.4-0.5,2.6-1.1,3.4
				c-0.5,0.8-1.2,1.4-2,1.8c-0.9,0.4-2,0.5-3.3,0.5H85.2c0.9,12.3,4.2,21.4,10,27.2c5.8,5.8,13.4,8.7,23,8.7c4.7,0,8.7-0.5,12.1-1.6
				c3.4-1.1,6.4-2.3,8.9-3.6c2.5-1.3,4.8-2.5,6.7-3.6c1.9-1.1,3.8-1.6,5.6-1.6c1.2,0,2.2,0.2,3,0.7c0.9,0.5,1.6,1.1,2.2,2l8.2,10.3
				C180.1,160.5,189.8,140.5,189.8,118.2z"/>
			<path fill="#F36F28" d="M138.6,108.1c-1-3.3-2.6-6.2-4.7-8.7c-2.1-2.5-4.8-4.5-8-5.9c-3.2-1.4-6.9-2.2-11.2-2.2
				c-8.4,0-15,2.4-19.8,7.1c-4.8,4.8-7.8,11.5-9.1,20.3h54.3C140.1,114.9,139.6,111.4,138.6,108.1z"/>
		</g>
	</g>
	<path fill="#FFFFFF" d="M154.4,162.1c-0.9-0.5-1.9-0.7-3-0.7c-1.8,0-3.6,0.5-5.6,1.6c-1.9,1.1-4.1,2.3-6.7,3.6
		c-2.5,1.3-5.5,2.5-8.9,3.6c-3.4,1.1-7.4,1.6-12.1,1.6c-9.5,0-17.2-2.9-23-8.7c-5.8-5.8-9.1-14.8-10-27.2h74.2
		c1.3,0,2.4-0.2,3.3-0.5c0.9-0.4,1.5-0.9,2-1.8c0.5-0.8,0.9-2,1.1-3.4c0.2-1.4,0.3-3.3,0.3-5.4c0-8.7-1.3-16.4-3.9-23.1
		c-2.6-6.8-6.2-12.5-10.8-17.1c-4.6-4.6-10.1-8.2-16.5-10.6c-6.4-2.4-13.3-3.6-20.9-3.6c-9,0-17,1.6-24.2,4.7
		c-7.1,3.1-13.2,7.4-18.1,12.7c-5,5.3-8.8,11.6-11.4,18.9c-2.7,7.2-4,14.9-4,23.1c0,10.5,1.5,19.8,4.6,27.8c3,8,7.2,14.7,12.5,20.1
		c5.3,5.4,11.6,9.5,18.7,12.3c2.6,1,5.3,1.8,8,2.4c4.5,0.8,9.1,1.3,13.9,1.3c19.5,0,37.3-7.4,50.7-19.5l-8.2-10.3
		C156,163.2,155.2,162.6,154.4,162.1z M94.9,98.4c4.8-4.8,11.4-7.1,19.8-7.1c4.3,0,8,0.7,11.2,2.2c3.2,1.4,5.9,3.4,8,5.9
		c2.1,2.5,3.7,5.4,4.7,8.7c1,3.3,1.5,6.8,1.5,10.6H85.7C87.1,109.9,90.1,103.2,94.9,98.4z"/>
	<g>
		<path fill="#454545" d="M247.2,70.1c-12.9,0-24.2,4.9-33.6,14.7c-9.4,9.7-14.1,21.6-14.1,35.2c0,13.5,4.7,25.2,14.1,34.8
			c9.4,9.6,21,14.5,34.5,14.5c13.3,0,24.8-5,34.1-14.8c9.3-9.8,14-21.8,14-35.7c0-13.2-4.8-24.8-14.4-34.3
			C272.4,75,260.8,70.1,247.2,70.1z M270.7,144.3c-6.1,6.6-13.5,9.8-22.6,9.8c-9.2,0-16.7-3.2-22.9-9.8c-6.1-6.5-9.3-14.7-9.3-24.4
			c0-9.7,3.1-17.9,9.2-24.5c6.2-6.6,13.3-9.8,21.9-9.8c9.6,0,17.3,3.1,23.6,9.6c6.2,6.4,9.3,14.6,9.3,24.6
			C279.9,129.5,276.8,137.8,270.7,144.3z"/>
		<path fill="#454545" d="M339.2,71.7c-4.8,0.1-9,1.2-12.7,3.2c-2.1,1.2-4.1,2.7-6,4.6V73h-15.2v93.9h16v-56.2
			c0-7.7,1.4-13.2,4.2-16.5c2.7-3.2,7.5-5.1,14.1-5.7l2-0.2l-0.1-16.7L339.2,71.7z"/>
		<path fill="#454545" d="M422.8,83.5c-3.2-3.3-7-6-11.2-8.1c-6-2.9-12.7-4.4-19.9-4.4c-13.9,0-25.7,4.8-35,14.2
			c-9.3,9.4-14,21.2-14,35.1c0,13.7,4.6,25.4,13.7,34.8c9.1,9.4,20.7,14.1,34.4,14.1c7.4,0,14.3-1.6,20.7-4.6
			c4.4-2.1,8.2-4.8,11.4-8.1v10.3h15.6V73h-15.6V83.5z M368.4,96c6.4-6.7,13.9-10,23-10c8.3,0,15.5,3.3,21.9,10
			c6.4,6.6,9.6,14.5,9.6,23.4c0,9.6-3.2,17.9-9.6,24.7c-6.4,6.8-13.7,10.2-22.2,10.2c-8.9,0-16.4-3.2-22.7-9.6
			c-6.4-6.5-9.5-14.3-9.5-23.8C358.8,111,362,102.6,368.4,96z"/>
		<path fill="#454545" d="M525.2,86.3c-3.2-4.9-7.6-8.7-13.1-11.3c-5.4-2.6-11.6-3.9-18.5-3.9c-6.2,0-11.9,1-16.8,3.1
			c-3.3,1.4-6.4,3.3-9.2,5.8V73h-15.5v93.9h15.5v-45.7c0-7.6,0.3-13,0.8-15.9c0.5-2.9,1.4-5.4,2.7-7.6c2.1-3.5,4.9-6.3,8.5-8.2
			c3.6-1.9,7.9-2.9,12.7-2.9c8.2,0,14.2,2.2,17.8,6.4c3.7,4.4,5.6,11.6,5.6,21.6v52.3h15.6v-49c0-8.5-0.5-15.1-1.4-19.5
			C529,93.8,527.4,89.8,525.2,86.3z"/>
		<path fill="#454545" d="M620.4,83.8c-3.5-3.7-7.3-6.6-11.5-8.6c-5.8-2.8-12.7-4.3-20.5-4.3c-13.5,0-25,4.7-34.2,14.1
			c-9.2,9.3-13.8,21-13.8,34.7c0,13.9,4.7,25.7,14,35.1c9.3,9.4,21.1,14.1,35.1,14.1c7,0,13.5-1.6,19.4-4.8c4.1-2.3,8-5.3,11.5-9.1
			c-0.6,9-3.5,16.3-8.5,21.9c-5.8,6.4-13.3,9.5-22.9,9.5c-6.1,0-11.3-1.4-15.4-4c-4.2-2.7-7-6.3-8.6-11l-0.5-1.5h-17.7l0.7,2.7
			c2.2,8.9,7.3,16.1,15,21.4c7.6,5.3,16.8,7.9,27.4,7.9c14.4,0,25.8-4.7,34.1-13.9c8.2-9.2,12.3-22,12.3-38.1V73h-15.6V83.8z
			 M620.2,120.5c0,9.1-3.1,16.7-9.6,23.5c-6.4,6.7-13.6,10-21.9,10c-8.8,0-16.2-3.2-22.5-9.9c-6.2-6.6-9.4-15-9.4-24.8
			c0-9.5,3.1-17.3,9.4-23.8c6.3-6.5,13.7-9.6,22.5-9.6c8.5,0,15.7,3.3,22,10.1C617,102.6,620.2,110.9,620.2,120.5z"/>
		<path fill="#454545" d="M741.6,122.7c0-15.3-4.5-28-13.3-37.6c-8.9-9.7-20.5-14.6-34.5-14.6c-14.3,0-26.2,4.7-35.4,14
			c-9.2,9.3-13.9,21.2-13.9,35.3c0,13.5,4.8,25.3,14.1,35c9.4,9.7,21,14.6,34.6,14.6c10.2,0,19.4-2.8,27.2-8.4
			c7.8-5.5,13.9-13.5,18.1-23.7l1.2-3h-17.6l-0.6,1.2c-2.7,5.8-6.7,10.4-11.7,13.7c-5,3.2-10.7,4.9-17,4.9c-9,0-16.3-2.8-22.3-8.4
			c-5.4-5.1-8.7-11.8-9.7-19.9h80.6V122.7z M671.5,93.3c5.6-5,12.5-7.6,20.6-7.6c8.8,0,15.9,2.4,21.3,7c4.9,4.3,8.5,10.5,10.6,18.7
			h-62.5C663.1,103.9,666.4,97.8,671.5,93.3z"/>
	</g>
	<g>
		<path fill="#454545" d="M214,221.4v11.7h-3.9v-11.7l-10.7-17.7h3.5c0.4,0,0.6,0.1,0.8,0.3c0.2,0.2,0.4,0.4,0.5,0.7l6.7,11.4
			c0.3,0.5,0.5,0.9,0.7,1.3c0.2,0.4,0.4,0.8,0.5,1.2c0.2-0.4,0.3-0.8,0.5-1.3c0.2-0.4,0.4-0.9,0.7-1.3l6.7-11.4
			c0.1-0.2,0.3-0.4,0.5-0.6c0.2-0.2,0.5-0.3,0.8-0.3h3.5L214,221.4z"/>
		<path fill="#454545" d="M233,212c1.5,0,2.9,0.3,4.1,0.8c1.2,0.5,2.3,1.2,3.1,2.1c0.9,0.9,1.5,2,2,3.4c0.5,1.3,0.7,2.8,0.7,4.4
			c0,1.6-0.2,3.1-0.7,4.4c-0.5,1.3-1.1,2.4-2,3.4c-0.9,0.9-1.9,1.6-3.1,2.1c-1.2,0.5-2.6,0.7-4.1,0.7c-1.5,0-2.9-0.2-4.1-0.7
			s-2.3-1.2-3.1-2.1s-1.5-2-2-3.4c-0.5-1.3-0.7-2.8-0.7-4.4c0-1.6,0.2-3.1,0.7-4.4c0.5-1.3,1.1-2.4,2-3.4c0.9-0.9,1.9-1.6,3.1-2.1
			C230.1,212.3,231.5,212,233,212z M233,230.5c2,0,3.6-0.7,4.6-2.1c1-1.4,1.5-3.3,1.5-5.7c0-2.5-0.5-4.4-1.5-5.8
			c-1-1.4-2.5-2.1-4.6-2.1c-1,0-1.9,0.2-2.7,0.5c-0.8,0.4-1.4,0.9-1.9,1.5c-0.5,0.7-0.9,1.5-1.1,2.5c-0.3,1-0.4,2.1-0.4,3.3
			c0,1.2,0.1,2.3,0.4,3.3c0.3,1,0.6,1.8,1.1,2.4c0.5,0.7,1.1,1.2,1.9,1.5C231.1,230.3,232,230.5,233,230.5z"/>
		<path fill="#454545" d="M250.5,212.4v13.2c0,1.6,0.4,2.8,1.1,3.6c0.7,0.9,1.8,1.3,3.3,1.3c1.1,0,2.1-0.3,3-0.8
			c0.9-0.5,1.8-1.2,2.6-2.1v-15.3h3.6v20.7H262c-0.5,0-0.8-0.3-1-0.8l-0.3-2.2c-0.9,1-1.9,1.8-3,2.4c-1.1,0.6-2.4,0.9-3.8,0.9
			c-1.1,0-2.1-0.2-3-0.6c-0.9-0.4-1.6-0.9-2.2-1.6c-0.6-0.7-1-1.5-1.3-2.5c-0.3-1-0.4-2-0.4-3.2v-13.2H250.5z"/>
		<path fill="#454545" d="M270.1,233.1v-20.7h2.1c0.4,0,0.7,0.1,0.8,0.2c0.2,0.2,0.3,0.4,0.3,0.8l0.2,3.2c0.7-1.4,1.6-2.6,2.6-3.4
			c1-0.8,2.3-1.2,3.7-1.2c0.6,0,1.1,0.1,1.6,0.2c0.5,0.1,0.9,0.3,1.3,0.5l-0.5,2.7c-0.1,0.3-0.3,0.5-0.6,0.5c-0.2,0-0.5-0.1-0.9-0.2
			c-0.4-0.1-0.9-0.2-1.7-0.2c-1.3,0-2.3,0.4-3.2,1.1c-0.9,0.7-1.6,1.8-2.1,3.2v13.2H270.1z"/>
		<path fill="#454545" d="M320.5,218.4c0,2.2-0.3,4.2-1,6c-0.7,1.8-1.7,3.3-2.9,4.6c-1.3,1.3-2.8,2.3-4.6,3
			c-1.8,0.7-3.7,1.1-5.9,1.1h-11v-29.3h11c2.2,0,4.1,0.4,5.9,1.1c1.8,0.7,3.3,1.7,4.6,3c1.3,1.3,2.3,2.8,2.9,4.6
			C320.1,214.2,320.5,216.2,320.5,218.4z M316.4,218.4c0-1.8-0.2-3.4-0.7-4.8c-0.5-1.4-1.2-2.6-2.1-3.6c-0.9-1-2-1.7-3.3-2.3
			c-1.3-0.5-2.7-0.8-4.3-0.8h-7v22.9h7c1.6,0,3-0.3,4.3-0.8c1.3-0.5,2.4-1.3,3.3-2.2c0.9-1,1.6-2.2,2.1-3.6
			C316.2,221.8,316.4,220.2,316.4,218.4z"/>
		<path fill="#454545" d="M333.5,212c1.2,0,2.4,0.2,3.4,0.6c1.1,0.4,2,1,2.7,1.8c0.8,0.8,1.4,1.8,1.8,2.9c0.4,1.2,0.6,2.5,0.6,3.9
			c0,0.6-0.1,1-0.2,1.1c-0.1,0.2-0.4,0.3-0.7,0.3h-13.8c0,1.3,0.2,2.4,0.5,3.4c0.3,1,0.8,1.8,1.4,2.4c0.6,0.6,1.3,1.1,2,1.5
			c0.8,0.3,1.7,0.5,2.7,0.5c0.9,0,1.7-0.1,2.4-0.3c0.7-0.2,1.2-0.4,1.7-0.7c0.5-0.2,0.9-0.5,1.2-0.7c0.3-0.2,0.6-0.3,0.8-0.3
			c0.3,0,0.5,0.1,0.7,0.3l1,1.3c-0.4,0.5-1,1-1.6,1.4c-0.6,0.4-1.3,0.7-2,1c-0.7,0.3-1.5,0.5-2.2,0.6c-0.8,0.1-1.5,0.2-2.3,0.2
			c-1.4,0-2.8-0.2-4-0.7c-1.2-0.5-2.3-1.2-3.1-2.1c-0.9-0.9-1.6-2.1-2.1-3.5c-0.5-1.4-0.7-3-0.7-4.7c0-1.4,0.2-2.8,0.7-4.1
			c0.4-1.3,1.1-2.3,1.9-3.3c0.8-0.9,1.8-1.6,3-2.2C330.7,212.3,332,212,333.5,212z M333.6,214.7c-1.8,0-3.1,0.5-4.2,1.5
			s-1.6,2.4-1.9,4.2h11.3c0-0.8-0.1-1.6-0.3-2.3c-0.2-0.7-0.6-1.3-1-1.8c-0.5-0.5-1-0.9-1.6-1.2S334.4,214.7,333.6,214.7z"/>
		<path fill="#454545" d="M358.6,215.8c-0.2,0.3-0.4,0.4-0.8,0.4c-0.2,0-0.4-0.1-0.7-0.2c-0.3-0.1-0.6-0.3-1-0.5
			c-0.4-0.2-0.8-0.4-1.3-0.5c-0.5-0.2-1.1-0.2-1.8-0.2c-0.6,0-1.2,0.1-1.7,0.2c-0.5,0.2-0.9,0.4-1.3,0.6c-0.3,0.3-0.6,0.6-0.8,1
			s-0.3,0.8-0.3,1.2c0,0.5,0.2,1,0.5,1.3c0.3,0.4,0.7,0.7,1.2,0.9c0.5,0.3,1.1,0.5,1.7,0.7c0.6,0.2,1.3,0.4,2,0.6
			c0.7,0.2,1.3,0.5,2,0.7c0.6,0.3,1.2,0.6,1.7,1c0.5,0.4,0.9,0.9,1.2,1.5c0.3,0.6,0.5,1.3,0.5,2.1c0,1-0.2,1.8-0.5,2.6
			c-0.3,0.8-0.8,1.5-1.5,2.1c-0.7,0.6-1.5,1.1-2.5,1.4c-1,0.3-2.1,0.5-3.4,0.5c-1.4,0-2.8-0.2-3.9-0.7c-1.2-0.5-2.2-1.1-3-1.8
			l0.9-1.4c0.1-0.2,0.2-0.3,0.4-0.4c0.1-0.1,0.3-0.1,0.6-0.1s0.5,0.1,0.8,0.3c0.3,0.2,0.6,0.4,1,0.6c0.4,0.2,0.9,0.4,1.4,0.6
			c0.6,0.2,1.2,0.3,2.1,0.3c0.7,0,1.3-0.1,1.9-0.3c0.5-0.2,1-0.4,1.3-0.7c0.4-0.3,0.6-0.7,0.8-1.1c0.2-0.4,0.3-0.8,0.3-1.3
			c0-0.6-0.2-1-0.5-1.4c-0.3-0.4-0.7-0.7-1.2-1c-0.5-0.3-1.1-0.5-1.7-0.7c-0.6-0.2-1.3-0.4-2-0.6c-0.7-0.2-1.3-0.5-2-0.7
			c-0.6-0.3-1.2-0.6-1.7-1.1c-0.5-0.4-0.9-0.9-1.2-1.6s-0.5-1.4-0.5-2.3c0-0.8,0.2-1.6,0.5-2.3c0.3-0.7,0.8-1.4,1.4-1.9
			c0.6-0.6,1.4-1,2.3-1.3c0.9-0.3,2-0.5,3.1-0.5c1.4,0,2.6,0.2,3.7,0.6c1.1,0.4,2,1,2.8,1.8L358.6,215.8z"/>
		<path fill="#454545" d="M369.4,205.9c0,0.4-0.1,0.7-0.2,1c-0.1,0.3-0.3,0.6-0.6,0.8c-0.2,0.2-0.5,0.4-0.8,0.6
			c-0.3,0.1-0.6,0.2-1,0.2s-0.7-0.1-1-0.2c-0.3-0.1-0.6-0.3-0.8-0.6c-0.2-0.2-0.4-0.5-0.6-0.8c-0.1-0.3-0.2-0.6-0.2-1
			c0-0.4,0.1-0.7,0.2-1c0.1-0.3,0.3-0.6,0.6-0.8c0.2-0.2,0.5-0.4,0.8-0.6s0.6-0.2,1-0.2s0.7,0.1,1,0.2c0.3,0.1,0.6,0.3,0.8,0.6
			c0.2,0.2,0.4,0.5,0.6,0.8C369.3,205.2,369.4,205.5,369.4,205.9z M368.6,212.4v20.7h-3.6v-20.7H368.6z"/>
		<path fill="#454545" d="M375,233.1v-20.7h2.1c0.4,0,0.7,0.1,0.8,0.2c0.2,0.2,0.3,0.4,0.3,0.8l0.2,3.2c0.7-1.4,1.6-2.6,2.6-3.4
			c1-0.8,2.3-1.2,3.7-1.2c0.6,0,1.1,0.1,1.6,0.2c0.5,0.1,0.9,0.3,1.3,0.5l-0.5,2.7c-0.1,0.3-0.3,0.5-0.6,0.5c-0.2,0-0.5-0.1-0.9-0.2
			c-0.4-0.1-0.9-0.2-1.7-0.2c-1.3,0-2.3,0.4-3.2,1.1c-0.9,0.7-1.6,1.8-2.1,3.2v13.2H375z"/>
		<path fill="#454545" d="M399.7,212c1.2,0,2.4,0.2,3.4,0.6c1.1,0.4,2,1,2.7,1.8c0.8,0.8,1.4,1.8,1.8,2.9c0.4,1.2,0.6,2.5,0.6,3.9
			c0,0.6-0.1,1-0.2,1.1c-0.1,0.2-0.4,0.3-0.7,0.3h-13.8c0,1.3,0.2,2.4,0.5,3.4c0.3,1,0.8,1.8,1.4,2.4c0.6,0.6,1.3,1.1,2,1.5
			c0.8,0.3,1.7,0.5,2.7,0.5c0.9,0,1.7-0.1,2.4-0.3c0.7-0.2,1.2-0.4,1.7-0.7c0.5-0.2,0.9-0.5,1.2-0.7c0.3-0.2,0.6-0.3,0.8-0.3
			c0.3,0,0.5,0.1,0.7,0.3l1,1.3c-0.4,0.5-1,1-1.6,1.4c-0.6,0.4-1.3,0.7-2,1c-0.7,0.3-1.5,0.5-2.2,0.6c-0.8,0.1-1.5,0.2-2.3,0.2
			c-1.4,0-2.8-0.2-4-0.7c-1.2-0.5-2.3-1.2-3.1-2.1c-0.9-0.9-1.6-2.1-2.1-3.5c-0.5-1.4-0.7-3-0.7-4.7c0-1.4,0.2-2.8,0.7-4.1
			c0.4-1.3,1.1-2.3,1.9-3.3c0.8-0.9,1.8-1.6,3-2.2C396.8,212.3,398.2,212,399.7,212z M399.8,214.7c-1.8,0-3.1,0.5-4.2,1.5
			s-1.6,2.4-1.9,4.2H405c0-0.8-0.1-1.6-0.3-2.3c-0.2-0.7-0.6-1.3-1-1.8c-0.5-0.5-1-0.9-1.6-1.2C401.3,214.9,400.6,214.7,399.8,214.7
			z"/>
		<path fill="#454545" d="M411.8,230.6c0-0.3,0.1-0.6,0.2-0.9c0.1-0.3,0.3-0.5,0.5-0.7c0.2-0.2,0.5-0.4,0.8-0.5
			c0.3-0.1,0.6-0.2,1-0.2c0.4,0,0.8,0.1,1.1,0.2c0.3,0.2,0.6,0.4,0.8,0.6c0.2,0.3,0.4,0.6,0.5,0.9c0.1,0.3,0.2,0.7,0.2,1.1
			c0,0.6-0.1,1.3-0.3,1.9c-0.2,0.7-0.4,1.3-0.8,2c-0.3,0.6-0.7,1.3-1.2,1.9c-0.5,0.6-1,1.2-1.6,1.7l-0.6-0.6
			c-0.2-0.2-0.3-0.4-0.3-0.6c0-0.2,0.1-0.4,0.3-0.6c0.1-0.2,0.3-0.4,0.5-0.6c0.2-0.3,0.4-0.5,0.6-0.9c0.2-0.3,0.4-0.7,0.6-1.1
			c0.2-0.4,0.3-0.8,0.4-1.3h-0.3c-0.4,0-0.7-0.1-1-0.2c-0.3-0.1-0.5-0.3-0.7-0.5c-0.2-0.2-0.4-0.5-0.5-0.8
			C411.9,231.3,411.8,230.9,411.8,230.6z"/>
		<path fill="#454545" d="M457.3,218.4c0,2.2-0.3,4.2-1,6c-0.7,1.8-1.7,3.4-2.9,4.7c-1.3,1.3-2.8,2.3-4.6,3.1
			c-1.8,0.7-3.7,1.1-5.9,1.1c-2.2,0-4.1-0.4-5.9-1.1c-1.8-0.7-3.3-1.8-4.6-3.1c-1.3-1.3-2.3-2.9-2.9-4.7c-0.7-1.8-1-3.8-1-6
			s0.3-4.2,1-6s1.7-3.4,2.9-4.7c1.3-1.3,2.8-2.4,4.6-3.1s3.7-1.1,5.9-1.1c2.2,0,4.1,0.4,5.9,1.1s3.3,1.8,4.6,3.1
			c1.3,1.3,2.3,2.9,2.9,4.7C456.9,214.2,457.3,216.2,457.3,218.4z M453.2,218.4c0-1.8-0.2-3.4-0.7-4.8c-0.5-1.4-1.2-2.6-2.1-3.6
			c-0.9-1-2-1.7-3.3-2.3c-1.3-0.5-2.7-0.8-4.3-0.8c-1.6,0-3,0.3-4.3,0.8c-1.3,0.5-2.4,1.3-3.3,2.3c-0.9,1-1.6,2.2-2.1,3.6
			c-0.5,1.4-0.7,3-0.7,4.8c0,1.8,0.2,3.4,0.7,4.8c0.5,1.4,1.2,2.6,2.1,3.6c0.9,1,2,1.7,3.3,2.3c1.3,0.5,2.7,0.8,4.3,0.8
			c1.6,0,3-0.3,4.3-0.8c1.3-0.5,2.4-1.3,3.3-2.3c0.9-1,1.6-2.2,2.1-3.6C453,221.8,453.2,220.2,453.2,218.4z"/>
		<path fill="#454545" d="M465.3,212.4v13.2c0,1.6,0.4,2.8,1.1,3.6c0.7,0.9,1.8,1.3,3.3,1.3c1.1,0,2.1-0.3,3-0.8
			c0.9-0.5,1.8-1.2,2.6-2.1v-15.3h3.6v20.7h-2.2c-0.5,0-0.8-0.3-1-0.8l-0.3-2.2c-0.9,1-1.9,1.8-3,2.4c-1.1,0.6-2.4,0.9-3.8,0.9
			c-1.1,0-2.1-0.2-3-0.6c-0.9-0.4-1.6-0.9-2.2-1.6c-0.6-0.7-1-1.5-1.3-2.5c-0.3-1-0.4-2-0.4-3.2v-13.2H465.3z"/>
		<path fill="#454545" d="M484.9,233.1v-20.7h2.1c0.4,0,0.7,0.1,0.8,0.2c0.2,0.2,0.3,0.4,0.3,0.8l0.2,3.2c0.7-1.4,1.6-2.6,2.6-3.4
			c1-0.8,2.3-1.2,3.7-1.2c0.6,0,1.1,0.1,1.6,0.2c0.5,0.1,0.9,0.3,1.3,0.5l-0.5,2.7c-0.1,0.3-0.3,0.5-0.6,0.5c-0.2,0-0.5-0.1-0.9-0.2
			c-0.4-0.1-0.9-0.2-1.7-0.2c-1.3,0-2.3,0.4-3.2,1.1c-0.9,0.7-1.6,1.8-2.1,3.2v13.2H484.9z"/>
		<path fill="#454545" d="M530.5,227c0.2,0,0.4,0.1,0.6,0.3l1.6,1.7c-1.2,1.4-2.7,2.5-4.4,3.3c-1.7,0.8-3.8,1.2-6.2,1.2
			c-2.1,0-4-0.4-5.7-1.1c-1.7-0.7-3.2-1.8-4.4-3.1c-1.2-1.3-2.2-2.9-2.8-4.7c-0.7-1.8-1-3.9-1-6.1s0.4-4.2,1.1-6.1
			c0.7-1.8,1.7-3.4,3-4.7c1.3-1.3,2.8-2.3,4.7-3.1c1.8-0.7,3.8-1.1,6-1.1c2.2,0,4,0.3,5.6,1c1.6,0.7,2.9,1.6,4.2,2.7l-1.3,1.8
			c-0.1,0.1-0.2,0.2-0.3,0.3c-0.1,0.1-0.3,0.1-0.5,0.1c-0.2,0-0.4-0.1-0.6-0.2c-0.2-0.1-0.4-0.3-0.7-0.5c-0.3-0.2-0.6-0.4-1-0.6
			c-0.4-0.2-0.8-0.4-1.3-0.6c-0.5-0.2-1.1-0.4-1.8-0.5c-0.7-0.1-1.4-0.2-2.3-0.2c-1.6,0-3,0.3-4.3,0.8c-1.3,0.5-2.4,1.3-3.4,2.3
			c-0.9,1-1.7,2.2-2.2,3.6c-0.5,1.4-0.8,3-0.8,4.8c0,1.8,0.3,3.5,0.8,4.9c0.5,1.4,1.2,2.6,2.1,3.6c0.9,1,2,1.7,3.2,2.3
			c1.2,0.5,2.6,0.8,4,0.8c0.9,0,1.7-0.1,2.4-0.2c0.7-0.1,1.3-0.3,1.9-0.5c0.6-0.2,1.1-0.5,1.7-0.8c0.5-0.3,1-0.7,1.5-1.2
			C530,227.1,530.3,227,530.5,227z"/>
		<path fill="#454545" d="M545.7,212c1.5,0,2.9,0.3,4.1,0.8c1.2,0.5,2.3,1.2,3.1,2.1c0.9,0.9,1.5,2,2,3.4c0.5,1.3,0.7,2.8,0.7,4.4
			c0,1.6-0.2,3.1-0.7,4.4c-0.5,1.3-1.1,2.4-2,3.4s-1.9,1.6-3.1,2.1c-1.2,0.5-2.6,0.7-4.1,0.7c-1.5,0-2.9-0.2-4.1-0.7
			s-2.3-1.2-3.1-2.1s-1.5-2-2-3.4c-0.5-1.3-0.7-2.8-0.7-4.4c0-1.6,0.2-3.1,0.7-4.4c0.5-1.3,1.1-2.4,2-3.4c0.9-0.9,1.9-1.6,3.1-2.1
			C542.8,212.3,544.2,212,545.7,212z M545.7,230.5c2,0,3.6-0.7,4.6-2.1c1-1.4,1.5-3.3,1.5-5.7c0-2.5-0.5-4.4-1.5-5.8
			c-1-1.4-2.5-2.1-4.6-2.1c-1,0-1.9,0.2-2.7,0.5c-0.8,0.4-1.4,0.9-1.9,1.5c-0.5,0.7-0.9,1.5-1.1,2.5c-0.3,1-0.4,2.1-0.4,3.3
			c0,1.2,0.1,2.3,0.4,3.3c0.3,1,0.6,1.8,1.1,2.4c0.5,0.7,1.1,1.2,1.9,1.5C543.7,230.3,544.6,230.5,545.7,230.5z"/>
		<path fill="#454545" d="M560,233.1v-20.7h2.2c0.5,0,0.8,0.3,1,0.8l0.3,2.1c0.8-0.9,1.6-1.7,2.6-2.3c0.9-0.6,2-0.9,3.3-0.9
			c1.4,0,2.5,0.4,3.4,1.2c0.9,0.8,1.5,1.8,1.9,3.1c0.3-0.7,0.7-1.4,1.1-1.9c0.5-0.5,1-1,1.6-1.4c0.6-0.4,1.2-0.6,1.9-0.8
			c0.7-0.2,1.3-0.2,2-0.2c1.1,0,2.1,0.2,2.9,0.5c0.9,0.3,1.6,0.9,2.2,1.5c0.6,0.7,1,1.5,1.4,2.5c0.3,1,0.5,2.1,0.5,3.3v13.2h-3.6
			v-13.2c0-1.6-0.4-2.9-1.1-3.7c-0.7-0.8-1.7-1.3-3.1-1.3c-0.6,0-1.2,0.1-1.7,0.3c-0.5,0.2-1,0.5-1.4,0.9c-0.4,0.4-0.7,0.9-1,1.5
			c-0.2,0.6-0.4,1.3-0.4,2.2v13.2h-3.6v-13.2c0-1.7-0.3-2.9-1-3.7c-0.7-0.8-1.6-1.2-2.9-1.2c-0.9,0-1.7,0.2-2.5,0.7
			c-0.8,0.5-1.5,1.1-2.1,2v15.4H560z"/>
		<path fill="#454545" d="M593.6,233.1v-20.7h2.2c0.5,0,0.8,0.3,1,0.8l0.3,2.1c0.8-0.9,1.6-1.7,2.6-2.3c0.9-0.6,2-0.9,3.3-0.9
			c1.4,0,2.5,0.4,3.4,1.2c0.9,0.8,1.5,1.8,1.9,3.1c0.3-0.7,0.7-1.4,1.1-1.9c0.5-0.5,1-1,1.6-1.4c0.6-0.4,1.2-0.6,1.9-0.8
			c0.7-0.2,1.3-0.2,2-0.2c1.1,0,2.1,0.2,2.9,0.5c0.9,0.3,1.6,0.9,2.2,1.5c0.6,0.7,1,1.5,1.4,2.5c0.3,1,0.5,2.1,0.5,3.3v13.2h-3.6
			v-13.2c0-1.6-0.4-2.9-1.1-3.7c-0.7-0.8-1.7-1.3-3.1-1.3c-0.6,0-1.2,0.1-1.7,0.3c-0.5,0.2-1,0.5-1.4,0.9c-0.4,0.4-0.7,0.9-1,1.5
			c-0.2,0.6-0.4,1.3-0.4,2.2v13.2h-3.6v-13.2c0-1.7-0.3-2.9-1-3.7c-0.7-0.8-1.6-1.2-2.9-1.2c-0.9,0-1.7,0.2-2.5,0.7
			c-0.8,0.5-1.5,1.1-2.1,2v15.4H593.6z"/>
		<path fill="#454545" d="M632.1,205.9c0,0.4-0.1,0.7-0.2,1c-0.1,0.3-0.3,0.6-0.6,0.8c-0.2,0.2-0.5,0.4-0.8,0.6
			c-0.3,0.1-0.6,0.2-1,0.2c-0.4,0-0.7-0.1-1-0.2c-0.3-0.1-0.6-0.3-0.8-0.6c-0.2-0.2-0.4-0.5-0.6-0.8c-0.1-0.3-0.2-0.6-0.2-1
			c0-0.4,0.1-0.7,0.2-1c0.1-0.3,0.3-0.6,0.6-0.8c0.2-0.2,0.5-0.4,0.8-0.6s0.6-0.2,1-0.2c0.4,0,0.7,0.1,1,0.2
			c0.3,0.1,0.6,0.3,0.8,0.6c0.2,0.2,0.4,0.5,0.6,0.8C632,205.2,632.1,205.5,632.1,205.9z M631.3,212.4v20.7h-3.6v-20.7H631.3z"/>
		<path fill="#454545" d="M644,233.4c-1.6,0-2.9-0.5-3.8-1.4c-0.9-0.9-1.3-2.2-1.3-3.9v-12.7h-2.5c-0.2,0-0.4-0.1-0.6-0.2
			c-0.2-0.1-0.2-0.3-0.2-0.6v-1.5l3.4-0.4l0.8-6.4c0-0.2,0.1-0.4,0.3-0.5c0.2-0.1,0.3-0.2,0.6-0.2h1.8v7.1h5.9v2.6h-5.9v12.4
			c0,0.9,0.2,1.5,0.6,1.9c0.4,0.4,1,0.6,1.6,0.6c0.4,0,0.7-0.1,1-0.2c0.3-0.1,0.5-0.2,0.7-0.3c0.2-0.1,0.4-0.2,0.5-0.3
			c0.1-0.1,0.3-0.2,0.4-0.2c0.2,0,0.4,0.1,0.5,0.3l1.1,1.7c-0.6,0.6-1.4,1-2.3,1.4C645.8,233.2,644.9,233.4,644,233.4z"/>
		<path fill="#454545" d="M652.9,233.1v-20.7h2.2c0.5,0,0.8,0.3,1,0.8l0.3,2.1c0.8-0.9,1.6-1.7,2.6-2.3c0.9-0.6,2-0.9,3.3-0.9
			c1.4,0,2.5,0.4,3.4,1.2c0.9,0.8,1.5,1.8,1.9,3.1c0.3-0.7,0.7-1.4,1.1-1.9c0.5-0.5,1-1,1.6-1.4c0.6-0.4,1.2-0.6,1.9-0.8
			c0.7-0.2,1.3-0.2,2-0.2c1.1,0,2.1,0.2,2.9,0.5c0.9,0.3,1.6,0.9,2.2,1.5c0.6,0.7,1,1.5,1.4,2.5c0.3,1,0.5,2.1,0.5,3.3v13.2h-3.6
			v-13.2c0-1.6-0.4-2.9-1.1-3.7c-0.7-0.8-1.7-1.3-3.1-1.3c-0.6,0-1.2,0.1-1.7,0.3c-0.5,0.2-1,0.5-1.4,0.9c-0.4,0.4-0.7,0.9-1,1.5
			c-0.2,0.6-0.4,1.3-0.4,2.2v13.2h-3.6v-13.2c0-1.7-0.3-2.9-1-3.7c-0.7-0.8-1.6-1.2-2.9-1.2c-0.9,0-1.7,0.2-2.5,0.7
			c-0.8,0.5-1.5,1.1-2.1,2v15.4H652.9z"/>
		<path fill="#454545" d="M694.7,212c1.2,0,2.4,0.2,3.4,0.6c1.1,0.4,2,1,2.7,1.8c0.8,0.8,1.4,1.8,1.8,2.9c0.4,1.2,0.6,2.5,0.6,3.9
			c0,0.6-0.1,1-0.2,1.1c-0.1,0.2-0.4,0.3-0.7,0.3h-13.8c0,1.3,0.2,2.4,0.5,3.4c0.3,1,0.8,1.8,1.4,2.4c0.6,0.6,1.3,1.1,2,1.5
			c0.8,0.3,1.7,0.5,2.7,0.5c0.9,0,1.7-0.1,2.4-0.3c0.7-0.2,1.2-0.4,1.7-0.7c0.5-0.2,0.9-0.5,1.2-0.7c0.3-0.2,0.6-0.3,0.8-0.3
			c0.3,0,0.5,0.1,0.7,0.3l1,1.3c-0.4,0.5-1,1-1.6,1.4c-0.6,0.4-1.3,0.7-2,1c-0.7,0.3-1.5,0.5-2.2,0.6c-0.8,0.1-1.5,0.2-2.3,0.2
			c-1.4,0-2.8-0.2-4-0.7c-1.2-0.5-2.3-1.2-3.1-2.1c-0.9-0.9-1.6-2.1-2.1-3.5c-0.5-1.4-0.7-3-0.7-4.7c0-1.4,0.2-2.8,0.7-4.1
			c0.4-1.3,1.1-2.3,1.9-3.3c0.8-0.9,1.8-1.6,3-2.2C691.9,212.3,693.2,212,694.7,212z M694.8,214.7c-1.8,0-3.1,0.5-4.2,1.5
			c-1,1-1.6,2.4-1.9,4.2H700c0-0.8-0.1-1.6-0.3-2.3c-0.2-0.7-0.6-1.3-1-1.8c-0.5-0.5-1-0.9-1.6-1.2
			C696.4,214.9,695.6,214.7,694.8,214.7z"/>
		<path fill="#454545" d="M708,233.1v-20.7h2.2c0.5,0,0.8,0.3,1,0.8l0.3,2.3c0.9-1,1.9-1.8,3-2.4c1.1-0.6,2.4-0.9,3.9-0.9
			c1.1,0,2.1,0.2,3,0.6c0.9,0.4,1.6,0.9,2.2,1.6c0.6,0.7,1,1.5,1.3,2.5c0.3,1,0.4,2,0.4,3.2v13.2h-3.6v-13.2c0-1.6-0.4-2.8-1.1-3.7
			c-0.7-0.9-1.8-1.3-3.3-1.3c-1.1,0-2.1,0.3-3,0.8c-0.9,0.5-1.8,1.2-2.6,2.1v15.3H708z"/>
		<path fill="#454545" d="M737,233.4c-1.6,0-2.9-0.5-3.8-1.4c-0.9-0.9-1.3-2.2-1.3-3.9v-12.7h-2.5c-0.2,0-0.4-0.1-0.6-0.2
			c-0.2-0.1-0.2-0.3-0.2-0.6v-1.5l3.4-0.4l0.8-6.4c0-0.2,0.1-0.4,0.3-0.5c0.2-0.1,0.3-0.2,0.6-0.2h1.8v7.1h5.9v2.6h-5.9v12.4
			c0,0.9,0.2,1.5,0.6,1.9c0.4,0.4,1,0.6,1.6,0.6c0.4,0,0.7-0.1,1-0.2c0.3-0.1,0.5-0.2,0.7-0.3c0.2-0.1,0.4-0.2,0.5-0.3
			c0.1-0.1,0.3-0.2,0.4-0.2c0.2,0,0.4,0.1,0.5,0.3l1.1,1.7c-0.6,0.6-1.4,1-2.3,1.4C738.8,233.2,737.9,233.4,737,233.4z"/>
	</g>
</g>
</svg>
